<?xml version="1.0" standalone="no"?><!DOCTYPE svg PUBLIC "-//W3C//DTD SVG 1.1//EN" "http://www.w3.org/Graphics/SVG/1.1/DTD/svg11.dtd"><svg t="1536817675256" class="icon" style="" viewBox="0 0 1024 1024" version="1.1" xmlns="http://www.w3.org/2000/svg" p-id="3242" xmlns:xlink="http://www.w3.org/1999/xlink" width="200" height="200"><defs><style type="text/css"></style></defs><path d="M249.6 524.8 761.6 524.8 249.6 524.8Z" p-id="3243" fill="#999999"></path><path d="M528 185.6C323.2 185.6 192 313.6 192 512c0 198.4 131.2 326.4 336 326.4l0 0c105.6 0 192-35.2 252.8-96 54.4-57.6 83.2-137.6 83.2-230.4C864 313.6 732.8 185.6 528 185.6zM758.4 720c-54.4 57.6-131.2 86.4-227.2 86.4l0 0C342.4 806.4 224 691.2 224 512c0-179.2 118.4-294.4 304-297.6 182.4 0 304 115.2 304 294.4C832 595.2 806.4 668.8 758.4 720zM665.6 505.6l-192-112c-3.2 0-6.4-3.2-9.6-3.2 0 0 0 0 0 0 0 0-3.2 0-3.2 0 0 0 0 0 0 0-6.4 0-12.8 6.4-12.8 16l0 220.8c0 3.2 0 6.4 3.2 12.8 3.2 3.2 3.2 6.4 6.4 6.4 0 0 0 0 0 0 0 0 3.2 0 3.2 0 0 0 0 0 3.2 0 0 0 0 0 0 0 0 0 0 0 0 0 3.2 0 3.2 0 6.4-3.2l185.6-108.8c3.2 0 9.6-3.2 9.6-6.4C675.2 521.6 672 512 665.6 505.6zM480 604.8l0-169.6 144 83.2L480 604.8z" p-id="3244" fill="#999999"></path></svg>