<?xml version="1.0" standalone="no"?><!DOCTYPE svg PUBLIC "-//W3C//DTD SVG 1.1//EN" "http://www.w3.org/Graphics/SVG/1.1/DTD/svg11.dtd"><svg t="1536817975232" class="icon" style="" viewBox="0 0 1024 1024" version="1.1" xmlns="http://www.w3.org/2000/svg" p-id="9365" xmlns:xlink="http://www.w3.org/1999/xlink" width="200" height="200"><defs><style type="text/css"></style></defs><path d="M823.403 943.761H212.06c-84.06 0-152.836-68.776-152.836-152.836V351.522c0-84.06 68.776-152.835 152.836-152.835h611.343c84.06 0 152.836 68.776 152.836 152.835v439.403c0 84.06-68.776 152.836-152.836 152.836zM212.06 275.104c-42.03 0-76.418 34.389-76.418 76.418v439.403c0 42.03 34.388 76.418 76.418 76.418h611.343c42.03 0 76.418-34.388 76.418-76.418V351.522c0-42.03-34.388-76.418-76.418-76.418H212.06z" p-id="9366" fill="#999999"></path><path d="M620.896 269.373c-5.732 0-11.463-1.91-17.195-5.731-13.373-9.552-15.283-26.746-7.641-40.12l95.522-133.731c9.552-13.373 26.746-15.284 40.12-7.642 13.373 9.552 15.283 26.747 7.641 40.12L643.821 256c-3.821 7.642-13.373 13.373-22.925 13.373z m-206.329 0c-9.552 0-17.194-3.82-22.925-11.463l-95.523-133.73c-9.552-13.374-5.73-30.568 7.642-40.12s30.567-7.642 40.12 5.731l95.522 133.731c9.552 13.374 5.731 30.568-7.642 40.12-5.731 3.82-11.462 5.731-17.194 5.731zM447.045 743.164c-5.732 0-11.463-1.91-15.284-3.82-11.462-5.732-19.104-21.016-19.104-38.21v-259.82c0-17.195 7.642-30.568 19.104-38.21 11.463-5.73 26.746-3.82 42.03 5.732l177.672 124.179c13.373 9.552 21.015 22.925 21.015 38.209s-7.642 28.657-21.015 38.209L473.79 733.612c-7.642 7.642-17.194 9.552-26.746 9.552z m3.82-303.761v265.552h1.911l177.672-124.179c3.82-1.91 5.731-3.82 5.731-5.731 0-1.91-1.91-3.821-5.731-5.732l-179.582-129.91c1.91 0 0 0 0 0z" p-id="9367" fill="#999999"></path></svg>